<svg xmlns="http://www.w3.org/2000/svg" viewBox="0 0 220 220"><defs><style>.cls-2{fill:#fb8c00}.cls-10{fill:#00bfa5}</style></defs><g style="isolation:isolate"><g id="Onboarding_illustrations" data-name="Onboarding illustrations"><path class="cls-2" d="M188.69 41.88c0-10-6-18.14-13.26-18.14s-13.26 8.16-13.26 18.14z"/><path d="M176 23.73l-31.42-.06H70.3C59.92 23.66 49 30.05 49 40v121.24c0 10 10.9 20.42 21.27 20.42h74.24c10.37 0 17.83-10.4 17.83-20.37l.2-120.78c.24-9.08 4.71-15.76 13.54-16.65z" fill="#ffa726"/><path class="cls-2" d="M50.18 181.5c-10.37 0-18.86-8.16-18.86-18.14h94.31c0 10 8.49 18.14 18.86 18.14z"/><path d="M61.08 64.33h91.15v5.32H61.08zm0 11.27h81.33v5.32H61.08zm0-22.55h65.93v5.32H61.08zm0 33.77h72.37v5.32H61.08zm0 22.54h81.33v5.32H61.08zm0 20.04h81.33v5.32H61.08zm0-31.31h84.42v5.32H61.08z" fill="#ffcc80"/><path fill="#00897b" d="M178.19 192.43l-14.65-7.8-6.5 15.27-17.77-50.36 21.15-7.46 17.77 50.35z"/><path d="M143.87 203.37l-7.47-14.82-14.12 8.73 14.5-51.39 21.59 6.09-14.5 51.39z"/><path fill="#26a69a" d="M142.87 202.37l-7.47-14.82-14.12 8.73 14.5-51.39 21.59 6.09-14.5 51.39z"/><path fill="none" stroke="#3949ab" stroke-linecap="round" stroke-miterlimit="10" stroke-width="6" d="M144.19 110.28l-3.28 5.17"/><g style="mix-blend-mode:multiply" opacity=".2"><path d="M151.23 102.4l4.99 3.87 5.93-2.14 3.55 5.22 6.3-.2 1.76 6.06 6.06 1.76-.19 6.31 5.21 3.54-2.13 5.94 3.86 4.98-3.86 4.99 2.13 5.93-5.21 3.55.19 6.31-6.06 1.76-1.76 6.06-6.3-.2-3.55 5.22-5.93-2.14-4.99 3.87-4.99-3.87-5.93 2.14-3.55-5.22-6.3.2-1.77-6.06-6.05-1.76.19-6.31-5.21-3.55 2.13-5.93-3.86-4.99 3.86-4.98-2.13-5.94 5.21-3.54-.19-6.31 6.05-1.76 1.77-6.06 6.3.2 3.55-5.22 5.93 2.14 4.99-3.87z"/><path d="M152.23 163.5A24.75 24.75 0 11177 138.74a24.78 24.78 0 01-24.77 24.76z"/><path d="M152.23 115.49A23.25 23.25 0 11129 138.74a23.28 23.28 0 0123.25-23.25m0-3a26.25 26.25 0 1026.25 26.25 26.25 26.25 0 00-26.25-26.25z"/><path d="M151.23 162.5A24.75 24.75 0 11176 137.74a24.78 24.78 0 01-24.77 24.76z"/><path d="M151.23 114.49A23.25 23.25 0 11128 137.74a23.28 23.28 0 0123.25-23.25m0-3a26.25 26.25 0 1026.25 26.25 26.25 26.25 0 00-26.25-26.25z"/><path d="M147.21 148.16l-9.12-9.12 3.67-3.66 5.45 5.41 13.48-13.46 3.67 3.67-17.15 17.16z"/></g><path class="cls-10" d="M150.23 101.4l4.99 3.87 5.93-2.14 3.55 5.22 6.3-.2 1.76 6.06 6.06 1.76-.19 6.31 5.21 3.54-2.13 5.94 3.86 4.98-3.86 4.99 2.13 5.93-5.21 3.55.19 6.31-6.06 1.76-1.76 6.06-6.3-.2-3.55 5.22-5.93-2.14-4.99 3.87-4.99-3.87-5.93 2.14-3.55-5.22-6.3.2-1.77-6.06-6.05-1.76.19-6.31-5.21-3.55 2.13-5.93-3.86-4.99 3.86-4.98-2.13-5.94 5.21-3.54-.19-6.31 6.05-1.76 1.77-6.06 6.3.2 3.55-5.22 5.93 2.14 4.99-3.87z"/><g style="mix-blend-mode:multiply" opacity=".15"><path d="M151.23 162.5A24.75 24.75 0 11176 137.74a24.78 24.78 0 01-24.77 24.76z"/><path d="M151.23 114.49A23.25 23.25 0 11128 137.74a23.28 23.28 0 0123.25-23.25m0-3a26.25 26.25 0 1026.25 26.25 26.25 26.25 0 00-26.25-26.25z"/></g><path d="M150.23 161.5A24.75 24.75 0 11175 136.74a24.78 24.78 0 01-24.77 24.76z" fill="#e0f2f1"/><path d="M150.23 113.49A23.25 23.25 0 11127 136.74a23.28 23.28 0 0123.25-23.25m0-3a26.25 26.25 0 1026.25 26.25 26.25 26.25 0 00-26.25-26.25z" fill="#b2dfdb"/><path class="cls-10" d="M146.21 147.16l-9.12-9.12 3.67-3.66 5.45 5.41 13.48-13.46 3.67 3.67-17.15 17.16z"/></g></g></svg>